<svg width="147" height="161" viewBox="0 0 147 161" fill="none" xmlns="http://www.w3.org/2000/svg">
<path d="M38.3614 89.3394C38.3125 82.9413 38.6016 73.6538 39.521 63.9042M52.2352 20.3559L50.3082 23.0536C44.9129 31.2959 41.0198 48.0103 39.521 63.9042M52.2352 20.3559C48.7667 18.429 46.4544 11.4921 51.8498 8.02366C54.2811 6.46067 58.0159 6.24599 60.7136 8.02365M52.2352 20.3559C54.1621 21.4265 56.9977 21.4431 59.9428 19.9705C63.0259 18.429 63.7966 15.089 63.4113 12.6483C63.107 10.7213 61.8006 9.36798 60.7136 8.02365M60.7136 8.02365C64.0536 4.03688 73.4312 -2.51728 83.4512 6.63138C91.6147 14.085 96.3419 26.1558 98.8665 32.452M41.8298 111.07C42.986 117.622 42.2152 112.997 44.1421 124.173C46.2091 136.162 50.6936 142.671 53.7767 147.296C56.089 150.765 62.7946 158.318 71.1189 159.243C79.4432 160.168 88.7181 150.379 91.5442 145.369C96.0403 137.148 105.341 114.158 105.033 83.9441C104.724 53.7301 103.106 51.3358 100.793 39.3889C100.197 36.3058 99.0323 32.8655 98.8665 32.452M34.5075 129.805C37.5906 130.062 45.6836 129.882 53.3913 127.107M34.5075 129.805C34.5075 125.951 31.8099 122.482 27.1853 122.482C22.5607 122.482 19.4776 124.795 19.0922 129.805M34.5075 129.805C34.5075 134.044 32.1952 136.742 27.5706 137.127C22.8708 137.519 19.0922 134.429 19.0922 129.805M19.0922 129.805C13.3115 129.548 1.75 126.028 1.75 114.004C1.75 101.98 15.3669 85.3571 22.1753 78.5487C25.0038 75.5941 32.4328 68.5288 39.521 63.9042M39.521 63.9042C47.3123 57.0957 71.0665 39.5431 98.8665 32.452M98.8665 32.452C112.355 29.7543 126.073 29.507 133.551 33.9935C137.405 36.3058 140.873 40.1597 141.644 46.1766C142.415 52.1934 141.259 58.1234 136.634 66.2165C133.941 70.9292 130.782 75.707 125.88 81.6318M99.6372 105.911C112.598 95.9878 120.451 88.1929 125.88 81.6318M125.88 81.6318C108.644 62.8251 85.274 50.1589 75.7435 46.1766C65.5531 41.9374 40.8813 33.3819 23.7168 33.0735C6.55238 32.7652 2.69119 44.7635 2.90615 50.8012C2.77769 58.8942 8.91812 79.2424 34.5075 95.8909M125.88 81.6318C128.951 85.3571 135.247 93.3474 135.863 95.5055M135.863 95.5055C132.395 97.8178 130.853 101.286 132.395 104.755C134.126 108.65 138.176 108.609 140.873 108.223M135.863 95.5055C141.259 93.1933 144.727 96.6617 145.498 99.7448C146.592 104.121 143.956 107.067 140.873 108.223M91.5442 127.107C98.6096 128.905 114.359 131.963 123.916 129.805C133.474 127.646 137.405 124.281 138.176 122.868C139.974 121.583 143.031 115.623 140.873 108.223" stroke="#2B57C7" stroke-width="2.3123" stroke-linecap="round"/>
<path d="M71.1189 82.4025C73.3027 83.8156 76.8997 87.1042 73.8166 88.954M73.8166 88.954C70.7335 90.8039 63.7966 89.7248 60.7136 88.954C58.7867 88.4402 55.1641 86.5647 56.089 83.1733M73.8166 88.954C73.8166 91.4205 76.3858 92.294 77.6704 92.4225C78.955 92.4225 81.9867 92.6537 83.8365 93.5786C86.1488 94.7348 84.2219 96.2763 85.7635 100.13C86.9967 103.213 88.5896 101.415 89.2319 100.13L90.0027 94.7348C93.394 91.6517 92.9573 88.3117 92.315 87.0271C92.1166 86.6056 91.8993 86.2211 91.6661 85.871M56.089 83.1733C57.0139 79.7819 61.3559 80.2187 63.4113 80.861M56.089 83.1733C53.0059 82.4025 51.3873 81.6318 50.6936 79.3195C49.5375 75.4656 52.5917 73.4103 54.697 72.768M63.4113 80.861L66.1089 83.1733M63.4113 80.861C63.6682 80.4756 64.2591 79.3194 64.5674 77.7779M79.212 80.0902C80.2039 80.657 81.5319 81.7709 82.0579 83.1733M81.1389 87.0271C82.3832 85.6445 82.4857 84.3135 82.0579 83.1733M82.0579 83.1733C84.2569 82.3464 88.9995 81.8671 91.6661 85.871M73.0458 75.4656C73.5297 74.498 74.6209 73.2874 76.1289 73.4352M79.212 75.4656C78.0642 74.0883 77.0232 73.5229 76.1289 73.4352M76.1289 73.4352C76.5143 73.5013 74.5874 65.0603 79.212 64.2895M79.212 64.2895C83.8365 63.5188 84.6073 63.9042 86.5342 65.4457C87.2761 66.0392 87.5717 67.073 87.6358 68.1434M79.212 64.2895C78.8266 62.748 77.0538 60.1274 73.0458 61.9772C72.2559 62.3418 71.6226 62.7523 71.1189 63.1863M83.8365 74.3095C85.2594 74.6178 86.7417 72.3826 87.305 71.2264C87.5049 70.4934 87.7048 69.2972 87.6358 68.1434M87.6358 68.1434C89.4524 68.2718 93.0857 69.3766 93.0857 72.768C93.0857 74.531 92.7386 75.676 92.315 76.3872M88.4611 77.7779L91.1588 77.3926C91.4672 77.3309 91.9237 77.0441 92.315 76.3872M92.315 76.3872C94.3231 78.1354 97.0048 82.4796 91.6661 85.871M69.5774 68.1434C69.1648 67.112 69.0669 64.9543 71.1189 63.1863M71.1189 63.1863C69.3205 62.0125 65.1069 60.5899 62.6405 64.2895C62.2782 64.833 62.0278 65.3721 61.8697 65.9003M64.5674 72.768C63.1427 71.6721 60.9514 68.9681 61.8697 65.9003M61.8697 65.9003C59.8144 65.3634 55.4724 65.3686 54.5475 69.6849C54.2751 70.9559 54.3748 71.9685 54.697 72.768M58.7867 75.4656C57.5178 75.375 55.4688 74.6833 54.697 72.768M45.6837 107.452H38.7468C36.8198 107.709 33.8139 106.527 37.2052 99.7447C40.5966 92.962 41.9583 88.4402 42.2152 87.0271L43.3713 77.7779C43.6283 72.3826 47.4564 60.5899 60.7136 56.5819C73.9707 52.5739 84.7358 56.1965 88.4611 58.5088C92.8288 60.8211 101.564 67.9121 101.564 77.7779C101.564 90.1102 101.564 92.8079 100.408 96.2763C99.2519 99.7447 97.3249 105.911 91.1588 114.004C90.2596 115.289 88.4611 118.783 88.4611 122.482C88.4611 126.182 88.4611 131.988 88.4611 134.429H64.9528L60.7136 124.409H51.8498C50.4367 124.281 47.5335 123.022 47.2252 119.014C46.9169 115.006 46.069 109.636 45.6837 107.452Z" stroke="#2B57C7" stroke-width="2.3123" stroke-linecap="round"/>
</svg>
